<?xml version="1.0" ?>
<svg height="120.000000" version="1.0" width="202.000000" xmlns="http://www.w3.org/2000/svg">
<defs>
    
</defs>
    <g transform="translate(110.000000,15.000000)">
<g transform="rotate(90.000000)">
<line x1="0.000000" y1="0.000000" x2="0.000000" y2="79.104298" stroke="rgb(0, 0, 0)" stroke-width="1.000000" stroke-linecap="butt"/>
<line x1="10.000000" y1="0.000000" x2="10.000000" y2="35.238693" stroke="rgb(0, 0, 0)" stroke-width="1.000000" stroke-linecap="butt"/>
<line x1="20.000000" y1="0.000000" x2="20.000000" y2="35.238693" stroke="rgb(0, 0, 0)" stroke-width="1.000000" stroke-linecap="butt"/>
<line x1="10.000000" y1="35.238693" x2="20.000000" y2="35.238693" stroke="rgb(0, 0, 0)" stroke-width="1.000000" stroke-linecap="butt"/>
<line x1="15.000000" y1="35.238693" x2="15.000000" y2="55.182158" stroke="rgb(0, 0, 0)" stroke-width="1.000000" stroke-linecap="butt"/>
<line x1="30.000000" y1="0.000000" x2="30.000000" y2="55.182158" stroke="rgb(0, 0, 0)" stroke-width="1.000000" stroke-linecap="butt"/>
<line x1="15.000000" y1="55.182158" x2="30.000000" y2="55.182158" stroke="rgb(0, 0, 0)" stroke-width="1.000000" stroke-linecap="butt"/>
<line x1="22.500000" y1="55.182158" x2="22.500000" y2="69.078567" stroke="rgb(0, 0, 0)" stroke-width="1.000000" stroke-linecap="butt"/>
<line x1="40.000000" y1="0.000000" x2="40.000000" y2="69.078567" stroke="rgb(0, 0, 0)" stroke-width="1.000000" stroke-linecap="butt"/>
<line x1="22.500000" y1="69.078567" x2="40.000000" y2="69.078567" stroke="rgb(0, 0, 0)" stroke-width="1.000000" stroke-linecap="butt"/>
<line x1="31.250000" y1="69.078567" x2="31.250000" y2="74.106272" stroke="rgb(0, 0, 0)" stroke-width="1.000000" stroke-linecap="butt"/>
<line x1="50.000000" y1="0.000000" x2="50.000000" y2="74.106272" stroke="rgb(0, 0, 0)" stroke-width="1.000000" stroke-linecap="butt"/>
<line x1="31.250000" y1="74.106272" x2="50.000000" y2="74.106272" stroke="rgb(0, 0, 0)" stroke-width="1.000000" stroke-linecap="butt"/>
<line x1="40.625000" y1="74.106272" x2="40.625000" y2="79.104298" stroke="rgb(0, 0, 0)" stroke-width="1.000000" stroke-linecap="butt"/>
<line x1="0.000000" y1="79.104298" x2="40.625000" y2="79.104298" stroke="rgb(0, 0, 0)" stroke-width="1.000000" stroke-linecap="butt"/>
<line x1="20.312500" y1="79.104298" x2="20.312500" y2="81.910048" stroke="rgb(0, 0, 0)" stroke-width="1.000000" stroke-linecap="butt"/>
<line x1="60.000000" y1="0.000000" x2="60.000000" y2="81.910048" stroke="rgb(0, 0, 0)" stroke-width="1.000000" stroke-linecap="butt"/>
<line x1="20.312500" y1="81.910048" x2="60.000000" y2="81.910048" stroke="rgb(0, 0, 0)" stroke-width="1.000000" stroke-linecap="butt"/>
<line x1="40.156250" y1="81.910048" x2="40.156250" y2="83.889763" stroke="rgb(0, 0, 0)" stroke-width="1.000000" stroke-linecap="butt"/>
<line x1="70.000000" y1="0.000000" x2="70.000000" y2="83.889763" stroke="rgb(0, 0, 0)" stroke-width="1.000000" stroke-linecap="butt"/>
<line x1="40.156250" y1="83.889763" x2="70.000000" y2="83.889763" stroke="rgb(0, 0, 0)" stroke-width="1.000000" stroke-linecap="butt"/>
<line x1="55.078125" y1="83.889763" x2="55.078125" y2="87.453958" stroke="rgb(0, 0, 0)" stroke-width="1.000000" stroke-linecap="butt"/>
<line x1="80.000000" y1="0.000000" x2="80.000000" y2="87.453958" stroke="rgb(0, 0, 0)" stroke-width="1.000000" stroke-linecap="butt"/>
<line x1="55.078125" y1="87.453958" x2="80.000000" y2="87.453958" stroke="rgb(0, 0, 0)" stroke-width="1.000000" stroke-linecap="butt"/>
<line x1="67.539062" y1="87.453958" x2="67.539062" y2="100.000000" stroke="rgb(0, 0, 0)" stroke-width="1.000000" stroke-linecap="butt"/>
<line x1="90.000000" y1="0.000000" x2="90.000000" y2="100.000000" stroke="rgb(0, 0, 0)" stroke-width="1.000000" stroke-linecap="butt"/>
<line x1="67.539062" y1="100.000000" x2="90.000000" y2="100.000000" stroke="rgb(0, 0, 0)" stroke-width="1.000000" stroke-linecap="butt"/>
</g>
</g>
<g transform="translate(112.000000,10.000000)">
<g transform="translate(2.000000,10.000000)">
<text x="0.000000" y="0.000000" font-family="Times-Roman" font-size="10.000000" text-anchor="start">acq</text>
<g transform="translate(0.000000,10.000000)">
<text x="0.000000" y="0.000000" font-family="Times-Roman" font-size="10.000000" text-anchor="start">earn</text>
<g transform="translate(0.000000,10.000000)">
<text x="0.000000" y="0.000000" font-family="Times-Roman" font-size="10.000000" text-anchor="start">earn</text>
<g transform="translate(0.000000,10.000000)">
<text x="0.000000" y="0.000000" font-family="Times-Roman" font-size="10.000000" text-anchor="start">earn</text>
<g transform="translate(0.000000,10.000000)">
<text x="0.000000" y="0.000000" font-family="Times-Roman" font-size="10.000000" text-anchor="start">earn</text>
<g transform="translate(0.000000,10.000000)">
<text x="0.000000" y="0.000000" font-family="Times-Roman" font-size="10.000000" text-anchor="start">copper</text>
<g transform="translate(0.000000,10.000000)">
<text x="0.000000" y="0.000000" font-family="Times-Roman" font-size="10.000000" text-anchor="start">acq</text>
<g transform="translate(0.000000,10.000000)">
<text x="0.000000" y="0.000000" font-family="Times-Roman" font-size="10.000000" text-anchor="start">reserves</text>
<g transform="translate(0.000000,10.000000)">
<text x="0.000000" y="0.000000" font-family="Times-Roman" font-size="10.000000" text-anchor="start">crude</text>
<g transform="translate(0.000000,10.000000)">
<text x="0.000000" y="0.000000" font-family="Times-Roman" font-size="10.000000" text-anchor="start">earn</text>
<g transform="translate(0.000000,10.000000)">
</g>
</g>
</g>
</g>
</g>
</g>
</g>
</g>
</g>
</g>
</g>
</g>

</svg>
