<?xml version="1.0" ?>
<svg height="420.000000" version="1.0" width="242.000000" xmlns="http://www.w3.org/2000/svg">
<defs>
    
</defs>
    <g transform="translate(110.000000,15.000000)">
<g transform="rotate(90.000000)">
<line x1="0.000000" y1="0.000000" x2="0.000000" y2="10.315831" stroke="rgb(0, 0, 0)" stroke-width="1.000000" stroke-linecap="butt"/>
<line x1="10.000000" y1="0.000000" x2="10.000000" y2="10.315831" stroke="rgb(0, 0, 0)" stroke-width="1.000000" stroke-linecap="butt"/>
<line x1="0.000000" y1="10.315831" x2="10.000000" y2="10.315831" stroke="rgb(0, 0, 0)" stroke-width="1.000000" stroke-linecap="butt"/>
<line x1="5.000000" y1="10.315831" x2="5.000000" y2="14.326922" stroke="rgb(0, 0, 0)" stroke-width="1.000000" stroke-linecap="butt"/>
<line x1="20.000000" y1="0.000000" x2="20.000000" y2="14.326922" stroke="rgb(0, 0, 0)" stroke-width="1.000000" stroke-linecap="butt"/>
<line x1="5.000000" y1="14.326922" x2="20.000000" y2="14.326922" stroke="rgb(0, 0, 0)" stroke-width="1.000000" stroke-linecap="butt"/>
<line x1="12.500000" y1="14.326922" x2="12.500000" y2="15.452899" stroke="rgb(0, 0, 0)" stroke-width="1.000000" stroke-linecap="butt"/>
<line x1="30.000000" y1="0.000000" x2="30.000000" y2="15.452899" stroke="rgb(0, 0, 0)" stroke-width="1.000000" stroke-linecap="butt"/>
<line x1="12.500000" y1="15.452899" x2="30.000000" y2="15.452899" stroke="rgb(0, 0, 0)" stroke-width="1.000000" stroke-linecap="butt"/>
<line x1="21.250000" y1="15.452899" x2="21.250000" y2="17.592979" stroke="rgb(0, 0, 0)" stroke-width="1.000000" stroke-linecap="butt"/>
<line x1="40.000000" y1="0.000000" x2="40.000000" y2="17.592979" stroke="rgb(0, 0, 0)" stroke-width="1.000000" stroke-linecap="butt"/>
<line x1="21.250000" y1="17.592979" x2="40.000000" y2="17.592979" stroke="rgb(0, 0, 0)" stroke-width="1.000000" stroke-linecap="butt"/>
<line x1="30.625000" y1="17.592979" x2="30.625000" y2="18.257097" stroke="rgb(0, 0, 0)" stroke-width="1.000000" stroke-linecap="butt"/>
<line x1="50.000000" y1="0.000000" x2="50.000000" y2="10.744316" stroke="rgb(0, 0, 0)" stroke-width="1.000000" stroke-linecap="butt"/>
<line x1="60.000000" y1="0.000000" x2="60.000000" y2="0.000000" stroke="rgb(0, 0, 0)" stroke-width="1.000000" stroke-linecap="butt"/>
<line x1="70.000000" y1="0.000000" x2="70.000000" y2="0.000000" stroke="rgb(0, 0, 0)" stroke-width="1.000000" stroke-linecap="butt"/>
<line x1="60.000000" y1="0.000000" x2="70.000000" y2="0.000000" stroke="rgb(0, 0, 0)" stroke-width="1.000000" stroke-linecap="butt"/>
<line x1="65.000000" y1="0.000000" x2="65.000000" y2="2.728383" stroke="rgb(0, 0, 0)" stroke-width="1.000000" stroke-linecap="butt"/>
<line x1="80.000000" y1="0.000000" x2="80.000000" y2="2.728383" stroke="rgb(0, 0, 0)" stroke-width="1.000000" stroke-linecap="butt"/>
<line x1="65.000000" y1="2.728383" x2="80.000000" y2="2.728383" stroke="rgb(0, 0, 0)" stroke-width="1.000000" stroke-linecap="butt"/>
<line x1="72.500000" y1="2.728383" x2="72.500000" y2="3.255013" stroke="rgb(0, 0, 0)" stroke-width="1.000000" stroke-linecap="butt"/>
<line x1="90.000000" y1="0.000000" x2="90.000000" y2="3.255013" stroke="rgb(0, 0, 0)" stroke-width="1.000000" stroke-linecap="butt"/>
<line x1="72.500000" y1="3.255013" x2="90.000000" y2="3.255013" stroke="rgb(0, 0, 0)" stroke-width="1.000000" stroke-linecap="butt"/>
<line x1="81.250000" y1="3.255013" x2="81.250000" y2="10.744316" stroke="rgb(0, 0, 0)" stroke-width="1.000000" stroke-linecap="butt"/>
<line x1="50.000000" y1="10.744316" x2="81.250000" y2="10.744316" stroke="rgb(0, 0, 0)" stroke-width="1.000000" stroke-linecap="butt"/>
<line x1="65.625000" y1="10.744316" x2="65.625000" y2="16.129059" stroke="rgb(0, 0, 0)" stroke-width="1.000000" stroke-linecap="butt"/>
<line x1="100.000000" y1="0.000000" x2="100.000000" y2="16.129059" stroke="rgb(0, 0, 0)" stroke-width="1.000000" stroke-linecap="butt"/>
<line x1="65.625000" y1="16.129059" x2="100.000000" y2="16.129059" stroke="rgb(0, 0, 0)" stroke-width="1.000000" stroke-linecap="butt"/>
<line x1="82.812500" y1="16.129059" x2="82.812500" y2="18.257097" stroke="rgb(0, 0, 0)" stroke-width="1.000000" stroke-linecap="butt"/>
<line x1="30.625000" y1="18.257097" x2="82.812500" y2="18.257097" stroke="rgb(0, 0, 0)" stroke-width="1.000000" stroke-linecap="butt"/>
<line x1="56.718750" y1="18.257097" x2="56.718750" y2="23.877331" stroke="rgb(0, 0, 0)" stroke-width="1.000000" stroke-linecap="butt"/>
<line x1="110.000000" y1="0.000000" x2="110.000000" y2="23.877331" stroke="rgb(0, 0, 0)" stroke-width="1.000000" stroke-linecap="butt"/>
<line x1="56.718750" y1="23.877331" x2="110.000000" y2="23.877331" stroke="rgb(0, 0, 0)" stroke-width="1.000000" stroke-linecap="butt"/>
<line x1="83.359375" y1="23.877331" x2="83.359375" y2="26.552498" stroke="rgb(0, 0, 0)" stroke-width="1.000000" stroke-linecap="butt"/>
<line x1="120.000000" y1="0.000000" x2="120.000000" y2="26.552498" stroke="rgb(0, 0, 0)" stroke-width="1.000000" stroke-linecap="butt"/>
<line x1="83.359375" y1="26.552498" x2="120.000000" y2="26.552498" stroke="rgb(0, 0, 0)" stroke-width="1.000000" stroke-linecap="butt"/>
<line x1="101.679688" y1="26.552498" x2="101.679688" y2="28.045622" stroke="rgb(0, 0, 0)" stroke-width="1.000000" stroke-linecap="butt"/>
<line x1="130.000000" y1="0.000000" x2="130.000000" y2="28.045622" stroke="rgb(0, 0, 0)" stroke-width="1.000000" stroke-linecap="butt"/>
<line x1="101.679688" y1="28.045622" x2="130.000000" y2="28.045622" stroke="rgb(0, 0, 0)" stroke-width="1.000000" stroke-linecap="butt"/>
<line x1="115.839844" y1="28.045622" x2="115.839844" y2="28.422689" stroke="rgb(0, 0, 0)" stroke-width="1.000000" stroke-linecap="butt"/>
<line x1="140.000000" y1="0.000000" x2="140.000000" y2="28.422689" stroke="rgb(0, 0, 0)" stroke-width="1.000000" stroke-linecap="butt"/>
<line x1="115.839844" y1="28.422689" x2="140.000000" y2="28.422689" stroke="rgb(0, 0, 0)" stroke-width="1.000000" stroke-linecap="butt"/>
<line x1="127.919922" y1="28.422689" x2="127.919922" y2="29.050568" stroke="rgb(0, 0, 0)" stroke-width="1.000000" stroke-linecap="butt"/>
<line x1="150.000000" y1="0.000000" x2="150.000000" y2="29.050568" stroke="rgb(0, 0, 0)" stroke-width="1.000000" stroke-linecap="butt"/>
<line x1="127.919922" y1="29.050568" x2="150.000000" y2="29.050568" stroke="rgb(0, 0, 0)" stroke-width="1.000000" stroke-linecap="butt"/>
<line x1="138.959961" y1="29.050568" x2="138.959961" y2="30.240224" stroke="rgb(0, 0, 0)" stroke-width="1.000000" stroke-linecap="butt"/>
<line x1="160.000000" y1="0.000000" x2="160.000000" y2="30.240224" stroke="rgb(0, 0, 0)" stroke-width="1.000000" stroke-linecap="butt"/>
<line x1="138.959961" y1="30.240224" x2="160.000000" y2="30.240224" stroke="rgb(0, 0, 0)" stroke-width="1.000000" stroke-linecap="butt"/>
<line x1="149.479980" y1="30.240224" x2="149.479980" y2="32.667223" stroke="rgb(0, 0, 0)" stroke-width="1.000000" stroke-linecap="butt"/>
<line x1="170.000000" y1="0.000000" x2="170.000000" y2="32.667223" stroke="rgb(0, 0, 0)" stroke-width="1.000000" stroke-linecap="butt"/>
<line x1="149.479980" y1="32.667223" x2="170.000000" y2="32.667223" stroke="rgb(0, 0, 0)" stroke-width="1.000000" stroke-linecap="butt"/>
<line x1="159.739990" y1="32.667223" x2="159.739990" y2="33.226708" stroke="rgb(0, 0, 0)" stroke-width="1.000000" stroke-linecap="butt"/>
<line x1="180.000000" y1="0.000000" x2="180.000000" y2="33.226708" stroke="rgb(0, 0, 0)" stroke-width="1.000000" stroke-linecap="butt"/>
<line x1="159.739990" y1="33.226708" x2="180.000000" y2="33.226708" stroke="rgb(0, 0, 0)" stroke-width="1.000000" stroke-linecap="butt"/>
<line x1="169.869995" y1="33.226708" x2="169.869995" y2="34.494669" stroke="rgb(0, 0, 0)" stroke-width="1.000000" stroke-linecap="butt"/>
<line x1="190.000000" y1="0.000000" x2="190.000000" y2="34.494669" stroke="rgb(0, 0, 0)" stroke-width="1.000000" stroke-linecap="butt"/>
<line x1="169.869995" y1="34.494669" x2="190.000000" y2="34.494669" stroke="rgb(0, 0, 0)" stroke-width="1.000000" stroke-linecap="butt"/>
<line x1="179.934998" y1="34.494669" x2="179.934998" y2="35.779133" stroke="rgb(0, 0, 0)" stroke-width="1.000000" stroke-linecap="butt"/>
<line x1="200.000000" y1="0.000000" x2="200.000000" y2="35.779133" stroke="rgb(0, 0, 0)" stroke-width="1.000000" stroke-linecap="butt"/>
<line x1="179.934998" y1="35.779133" x2="200.000000" y2="35.779133" stroke="rgb(0, 0, 0)" stroke-width="1.000000" stroke-linecap="butt"/>
<line x1="189.967499" y1="35.779133" x2="189.967499" y2="36.685520" stroke="rgb(0, 0, 0)" stroke-width="1.000000" stroke-linecap="butt"/>
<line x1="210.000000" y1="0.000000" x2="210.000000" y2="36.685520" stroke="rgb(0, 0, 0)" stroke-width="1.000000" stroke-linecap="butt"/>
<line x1="189.967499" y1="36.685520" x2="210.000000" y2="36.685520" stroke="rgb(0, 0, 0)" stroke-width="1.000000" stroke-linecap="butt"/>
<line x1="199.983749" y1="36.685520" x2="199.983749" y2="37.074311" stroke="rgb(0, 0, 0)" stroke-width="1.000000" stroke-linecap="butt"/>
<line x1="220.000000" y1="0.000000" x2="220.000000" y2="37.074311" stroke="rgb(0, 0, 0)" stroke-width="1.000000" stroke-linecap="butt"/>
<line x1="199.983749" y1="37.074311" x2="220.000000" y2="37.074311" stroke="rgb(0, 0, 0)" stroke-width="1.000000" stroke-linecap="butt"/>
<line x1="209.991875" y1="37.074311" x2="209.991875" y2="38.270201" stroke="rgb(0, 0, 0)" stroke-width="1.000000" stroke-linecap="butt"/>
<line x1="230.000000" y1="0.000000" x2="230.000000" y2="38.270201" stroke="rgb(0, 0, 0)" stroke-width="1.000000" stroke-linecap="butt"/>
<line x1="209.991875" y1="38.270201" x2="230.000000" y2="38.270201" stroke="rgb(0, 0, 0)" stroke-width="1.000000" stroke-linecap="butt"/>
<line x1="219.995937" y1="38.270201" x2="219.995937" y2="39.321824" stroke="rgb(0, 0, 0)" stroke-width="1.000000" stroke-linecap="butt"/>
<line x1="240.000000" y1="0.000000" x2="240.000000" y2="39.321824" stroke="rgb(0, 0, 0)" stroke-width="1.000000" stroke-linecap="butt"/>
<line x1="219.995937" y1="39.321824" x2="240.000000" y2="39.321824" stroke="rgb(0, 0, 0)" stroke-width="1.000000" stroke-linecap="butt"/>
<line x1="229.997969" y1="39.321824" x2="229.997969" y2="39.648185" stroke="rgb(0, 0, 0)" stroke-width="1.000000" stroke-linecap="butt"/>
<line x1="250.000000" y1="0.000000" x2="250.000000" y2="39.648185" stroke="rgb(0, 0, 0)" stroke-width="1.000000" stroke-linecap="butt"/>
<line x1="229.997969" y1="39.648185" x2="250.000000" y2="39.648185" stroke="rgb(0, 0, 0)" stroke-width="1.000000" stroke-linecap="butt"/>
<line x1="239.998984" y1="39.648185" x2="239.998984" y2="40.267205" stroke="rgb(0, 0, 0)" stroke-width="1.000000" stroke-linecap="butt"/>
<line x1="260.000000" y1="0.000000" x2="260.000000" y2="40.267205" stroke="rgb(0, 0, 0)" stroke-width="1.000000" stroke-linecap="butt"/>
<line x1="239.998984" y1="40.267205" x2="260.000000" y2="40.267205" stroke="rgb(0, 0, 0)" stroke-width="1.000000" stroke-linecap="butt"/>
<line x1="249.999492" y1="40.267205" x2="249.999492" y2="40.791271" stroke="rgb(0, 0, 0)" stroke-width="1.000000" stroke-linecap="butt"/>
<line x1="270.000000" y1="0.000000" x2="270.000000" y2="40.791271" stroke="rgb(0, 0, 0)" stroke-width="1.000000" stroke-linecap="butt"/>
<line x1="249.999492" y1="40.791271" x2="270.000000" y2="40.791271" stroke="rgb(0, 0, 0)" stroke-width="1.000000" stroke-linecap="butt"/>
<line x1="259.999746" y1="40.791271" x2="259.999746" y2="41.711184" stroke="rgb(0, 0, 0)" stroke-width="1.000000" stroke-linecap="butt"/>
<line x1="280.000000" y1="0.000000" x2="280.000000" y2="41.711184" stroke="rgb(0, 0, 0)" stroke-width="1.000000" stroke-linecap="butt"/>
<line x1="259.999746" y1="41.711184" x2="280.000000" y2="41.711184" stroke="rgb(0, 0, 0)" stroke-width="1.000000" stroke-linecap="butt"/>
<line x1="269.999873" y1="41.711184" x2="269.999873" y2="42.462552" stroke="rgb(0, 0, 0)" stroke-width="1.000000" stroke-linecap="butt"/>
<line x1="290.000000" y1="0.000000" x2="290.000000" y2="42.462552" stroke="rgb(0, 0, 0)" stroke-width="1.000000" stroke-linecap="butt"/>
<line x1="269.999873" y1="42.462552" x2="290.000000" y2="42.462552" stroke="rgb(0, 0, 0)" stroke-width="1.000000" stroke-linecap="butt"/>
<line x1="279.999937" y1="42.462552" x2="279.999937" y2="43.678358" stroke="rgb(0, 0, 0)" stroke-width="1.000000" stroke-linecap="butt"/>
<line x1="300.000000" y1="0.000000" x2="300.000000" y2="43.678358" stroke="rgb(0, 0, 0)" stroke-width="1.000000" stroke-linecap="butt"/>
<line x1="279.999937" y1="43.678358" x2="300.000000" y2="43.678358" stroke="rgb(0, 0, 0)" stroke-width="1.000000" stroke-linecap="butt"/>
<line x1="289.999968" y1="43.678358" x2="289.999968" y2="44.248706" stroke="rgb(0, 0, 0)" stroke-width="1.000000" stroke-linecap="butt"/>
<line x1="310.000000" y1="0.000000" x2="310.000000" y2="44.248706" stroke="rgb(0, 0, 0)" stroke-width="1.000000" stroke-linecap="butt"/>
<line x1="289.999968" y1="44.248706" x2="310.000000" y2="44.248706" stroke="rgb(0, 0, 0)" stroke-width="1.000000" stroke-linecap="butt"/>
<line x1="299.999984" y1="44.248706" x2="299.999984" y2="46.421793" stroke="rgb(0, 0, 0)" stroke-width="1.000000" stroke-linecap="butt"/>
<line x1="320.000000" y1="0.000000" x2="320.000000" y2="46.421793" stroke="rgb(0, 0, 0)" stroke-width="1.000000" stroke-linecap="butt"/>
<line x1="299.999984" y1="46.421793" x2="320.000000" y2="46.421793" stroke="rgb(0, 0, 0)" stroke-width="1.000000" stroke-linecap="butt"/>
<line x1="309.999992" y1="46.421793" x2="309.999992" y2="49.428517" stroke="rgb(0, 0, 0)" stroke-width="1.000000" stroke-linecap="butt"/>
<line x1="330.000000" y1="0.000000" x2="330.000000" y2="49.428517" stroke="rgb(0, 0, 0)" stroke-width="1.000000" stroke-linecap="butt"/>
<line x1="309.999992" y1="49.428517" x2="330.000000" y2="49.428517" stroke="rgb(0, 0, 0)" stroke-width="1.000000" stroke-linecap="butt"/>
<line x1="319.999996" y1="49.428517" x2="319.999996" y2="49.751053" stroke="rgb(0, 0, 0)" stroke-width="1.000000" stroke-linecap="butt"/>
<line x1="340.000000" y1="0.000000" x2="340.000000" y2="49.751053" stroke="rgb(0, 0, 0)" stroke-width="1.000000" stroke-linecap="butt"/>
<line x1="319.999996" y1="49.751053" x2="340.000000" y2="49.751053" stroke="rgb(0, 0, 0)" stroke-width="1.000000" stroke-linecap="butt"/>
<line x1="329.999998" y1="49.751053" x2="329.999998" y2="56.267243" stroke="rgb(0, 0, 0)" stroke-width="1.000000" stroke-linecap="butt"/>
<line x1="350.000000" y1="0.000000" x2="350.000000" y2="56.267243" stroke="rgb(0, 0, 0)" stroke-width="1.000000" stroke-linecap="butt"/>
<line x1="329.999998" y1="56.267243" x2="350.000000" y2="56.267243" stroke="rgb(0, 0, 0)" stroke-width="1.000000" stroke-linecap="butt"/>
<line x1="339.999999" y1="56.267243" x2="339.999999" y2="58.210966" stroke="rgb(0, 0, 0)" stroke-width="1.000000" stroke-linecap="butt"/>
<line x1="360.000000" y1="0.000000" x2="360.000000" y2="58.210966" stroke="rgb(0, 0, 0)" stroke-width="1.000000" stroke-linecap="butt"/>
<line x1="339.999999" y1="58.210966" x2="360.000000" y2="58.210966" stroke="rgb(0, 0, 0)" stroke-width="1.000000" stroke-linecap="butt"/>
<line x1="350.000000" y1="58.210966" x2="350.000000" y2="61.578163" stroke="rgb(0, 0, 0)" stroke-width="1.000000" stroke-linecap="butt"/>
<line x1="370.000000" y1="0.000000" x2="370.000000" y2="61.578163" stroke="rgb(0, 0, 0)" stroke-width="1.000000" stroke-linecap="butt"/>
<line x1="350.000000" y1="61.578163" x2="370.000000" y2="61.578163" stroke="rgb(0, 0, 0)" stroke-width="1.000000" stroke-linecap="butt"/>
<line x1="360.000000" y1="61.578163" x2="360.000000" y2="62.379903" stroke="rgb(0, 0, 0)" stroke-width="1.000000" stroke-linecap="butt"/>
<line x1="380.000000" y1="0.000000" x2="380.000000" y2="62.379903" stroke="rgb(0, 0, 0)" stroke-width="1.000000" stroke-linecap="butt"/>
<line x1="360.000000" y1="62.379903" x2="380.000000" y2="62.379903" stroke="rgb(0, 0, 0)" stroke-width="1.000000" stroke-linecap="butt"/>
<line x1="370.000000" y1="62.379903" x2="370.000000" y2="100.000000" stroke="rgb(0, 0, 0)" stroke-width="1.000000" stroke-linecap="butt"/>
<line x1="390.000000" y1="0.000000" x2="390.000000" y2="100.000000" stroke="rgb(0, 0, 0)" stroke-width="1.000000" stroke-linecap="butt"/>
<line x1="370.000000" y1="100.000000" x2="390.000000" y2="100.000000" stroke="rgb(0, 0, 0)" stroke-width="1.000000" stroke-linecap="butt"/>
</g>
</g>
<g transform="translate(112.000000,10.000000)">
<g transform="translate(2.000000,10.000000)">
<text x="0.000000" y="0.000000" font-family="Times-Roman" font-size="10.000000" text-anchor="start">earn</text>
<g transform="translate(0.000000,10.000000)">
<text x="0.000000" y="0.000000" font-family="Times-Roman" font-size="10.000000" text-anchor="start">earn</text>
<g transform="translate(0.000000,10.000000)">
<text x="0.000000" y="0.000000" font-family="Times-Roman" font-size="10.000000" text-anchor="start">earn</text>
<g transform="translate(0.000000,10.000000)">
<text x="0.000000" y="0.000000" font-family="Times-Roman" font-size="10.000000" text-anchor="start">earn</text>
<g transform="translate(0.000000,10.000000)">
<text x="0.000000" y="0.000000" font-family="Times-Roman" font-size="10.000000" text-anchor="start">earn</text>
<g transform="translate(0.000000,10.000000)">
<text x="0.000000" y="0.000000" font-family="Times-Roman" font-size="10.000000" text-anchor="start">earn</text>
<g transform="translate(0.000000,10.000000)">
<text x="0.000000" y="0.000000" font-family="Times-Roman" font-size="10.000000" text-anchor="start">earn</text>
<g transform="translate(0.000000,10.000000)">
<text x="0.000000" y="0.000000" font-family="Times-Roman" font-size="10.000000" text-anchor="start">earn</text>
<g transform="translate(0.000000,10.000000)">
<text x="0.000000" y="0.000000" font-family="Times-Roman" font-size="10.000000" text-anchor="start">earn</text>
<g transform="translate(0.000000,10.000000)">
<text x="0.000000" y="0.000000" font-family="Times-Roman" font-size="10.000000" text-anchor="start">earn</text>
<g transform="translate(0.000000,10.000000)">
<text x="0.000000" y="0.000000" font-family="Times-Roman" font-size="10.000000" text-anchor="start">earn</text>
<g transform="translate(0.000000,10.000000)">
<text x="0.000000" y="0.000000" font-family="Times-Roman" font-size="10.000000" text-anchor="start">earn</text>
<g transform="translate(0.000000,10.000000)">
<text x="0.000000" y="0.000000" font-family="Times-Roman" font-size="10.000000" text-anchor="start">acq</text>
<g transform="translate(0.000000,10.000000)">
<text x="0.000000" y="0.000000" font-family="Times-Roman" font-size="10.000000" text-anchor="start">earn</text>
<g transform="translate(0.000000,10.000000)">
<text x="0.000000" y="0.000000" font-family="Times-Roman" font-size="10.000000" text-anchor="start">earn</text>
<g transform="translate(0.000000,10.000000)">
<text x="0.000000" y="0.000000" font-family="Times-Roman" font-size="10.000000" text-anchor="start">acq</text>
<g transform="translate(0.000000,10.000000)">
<text x="0.000000" y="0.000000" font-family="Times-Roman" font-size="10.000000" text-anchor="start">earn</text>
<g transform="translate(0.000000,10.000000)">
<text x="0.000000" y="0.000000" font-family="Times-Roman" font-size="10.000000" text-anchor="start">acq</text>
<g transform="translate(0.000000,10.000000)">
<text x="0.000000" y="0.000000" font-family="Times-Roman" font-size="10.000000" text-anchor="start">grain</text>
<g transform="translate(0.000000,10.000000)">
<text x="0.000000" y="0.000000" font-family="Times-Roman" font-size="10.000000" text-anchor="start">acq</text>
<g transform="translate(0.000000,10.000000)">
<text x="0.000000" y="0.000000" font-family="Times-Roman" font-size="10.000000" text-anchor="start">reserves</text>
<g transform="translate(0.000000,10.000000)">
<text x="0.000000" y="0.000000" font-family="Times-Roman" font-size="10.000000" text-anchor="start">earn</text>
<g transform="translate(0.000000,10.000000)">
<text x="0.000000" y="0.000000" font-family="Times-Roman" font-size="10.000000" text-anchor="start">acq</text>
<g transform="translate(0.000000,10.000000)">
<text x="0.000000" y="0.000000" font-family="Times-Roman" font-size="10.000000" text-anchor="start">acq</text>
<g transform="translate(0.000000,10.000000)">
<text x="0.000000" y="0.000000" font-family="Times-Roman" font-size="10.000000" text-anchor="start">copper</text>
<g transform="translate(0.000000,10.000000)">
<text x="0.000000" y="0.000000" font-family="Times-Roman" font-size="10.000000" text-anchor="start">trade</text>
<g transform="translate(0.000000,10.000000)">
<text x="0.000000" y="0.000000" font-family="Times-Roman" font-size="10.000000" text-anchor="start">grain</text>
<g transform="translate(0.000000,10.000000)">
<text x="0.000000" y="0.000000" font-family="Times-Roman" font-size="10.000000" text-anchor="start">acq</text>
<g transform="translate(0.000000,10.000000)">
<text x="0.000000" y="0.000000" font-family="Times-Roman" font-size="10.000000" text-anchor="start">oilseed</text>
<g transform="translate(0.000000,10.000000)">
<text x="0.000000" y="0.000000" font-family="Times-Roman" font-size="10.000000" text-anchor="start">acq</text>
<g transform="translate(0.000000,10.000000)">
<text x="0.000000" y="0.000000" font-family="Times-Roman" font-size="10.000000" text-anchor="start">crude</text>
<g transform="translate(0.000000,10.000000)">
<text x="0.000000" y="0.000000" font-family="Times-Roman" font-size="10.000000" text-anchor="start">crude</text>
<g transform="translate(0.000000,10.000000)">
<text x="0.000000" y="0.000000" font-family="Times-Roman" font-size="10.000000" text-anchor="start">sugar</text>
<g transform="translate(0.000000,10.000000)">
<text x="0.000000" y="0.000000" font-family="Times-Roman" font-size="10.000000" text-anchor="start">ship</text>
<g transform="translate(0.000000,10.000000)">
<text x="0.000000" y="0.000000" font-family="Times-Roman" font-size="10.000000" text-anchor="start">earn</text>
<g transform="translate(0.000000,10.000000)">
<text x="0.000000" y="0.000000" font-family="Times-Roman" font-size="10.000000" text-anchor="start">veg-oil</text>
<g transform="translate(0.000000,10.000000)">
<text x="0.000000" y="0.000000" font-family="Times-Roman" font-size="10.000000" text-anchor="start">money-fx</text>
<g transform="translate(0.000000,10.000000)">
<text x="0.000000" y="0.000000" font-family="Times-Roman" font-size="10.000000" text-anchor="start">gold</text>
<g transform="translate(0.000000,10.000000)">
<text x="0.000000" y="0.000000" font-family="Times-Roman" font-size="10.000000" text-anchor="start">money-supply</text>
<g transform="translate(0.000000,10.000000)">
<text x="0.000000" y="0.000000" font-family="Times-Roman" font-size="10.000000" text-anchor="start">coffee</text>
<g transform="translate(0.000000,10.000000)">
</g>
</g>
</g>
</g>
</g>
</g>
</g>
</g>
</g>
</g>
</g>
</g>
</g>
</g>
</g>
</g>
</g>
</g>
</g>
</g>
</g>
</g>
</g>
</g>
</g>
</g>
</g>
</g>
</g>
</g>
</g>
</g>
</g>
</g>
</g>
</g>
</g>
</g>
</g>
</g>
</g>
</g>

</svg>
